<svg width="21" height="21" viewBox="0 0 21 21" fill="none" xmlns="http://www.w3.org/2000/svg">
<path d="M15.4945 15.8366C15.3177 15.9696 15.1095 16.0361 14.8697 16.0361C14.658 16.0361 14.4576 15.9696 14.2677 15.8366C14.077 15.7036 13.9816 15.5102 13.9816 15.2591V8.42275H13.9615L11.3505 13.7226C11.2722 13.893 11.1571 14.0438 11.0136 14.1645C10.8868 14.2625 10.7188 14.3115 10.5079 14.3115C10.2979 14.3115 10.129 14.2625 10.003 14.1645C9.85927 14.0441 9.74419 13.8931 9.66613 13.7226L7.05512 8.42362H7.035V15.2582C7.04006 15.372 7.01536 15.4851 6.96334 15.5864C6.91132 15.6876 6.83378 15.7736 6.73838 15.8357C6.55947 15.9635 6.34572 16.0335 6.12587 16.0361C5.88525 16.0361 5.68138 15.9696 5.51162 15.8366C5.34275 15.7036 5.25787 15.5102 5.25787 15.2591V6.08825C5.25787 5.82225 5.34187 5.57288 5.51162 5.34188C5.67963 5.11088 5.9815 4.99538 6.41813 4.99538C6.74188 4.99538 6.99125 5.06887 7.16712 5.21588C7.34212 5.36375 7.49962 5.58425 7.64137 5.87825L10.5087 11.788H10.5298L13.3761 5.87825C13.5161 5.58425 13.6754 5.36375 13.8512 5.21588C14.0262 5.06887 14.2756 4.99538 14.5994 4.99538C15.0351 4.99538 15.3379 5.11088 15.5059 5.34188C15.6748 5.57375 15.7596 5.82312 15.7596 6.08913V15.2574C15.7596 15.5094 15.6712 15.7028 15.4954 15.8349L15.4945 15.8366ZM10.479 19.4731C15.4297 19.4731 19.4731 15.4131 19.4731 10.437C19.4731 5.5195 15.4455 1.52688 10.479 1.52688C5.51425 1.52688 1.52775 5.49588 1.52775 10.437C1.52775 15.3283 5.65338 19.4731 10.479 19.4731ZM10.479 21C4.80813 21 0 16.17 0 10.437C0 4.65063 4.6725 0 10.479 0C16.2864 0 21 4.6725 21 10.437C21 16.2549 16.275 21 10.479 21Z" fill="url(#paint0_linear)"/>
<path d="M15.4945 15.8366C15.3177 15.9696 15.1095 16.0361 14.8697 16.0361C14.658 16.0361 14.4576 15.9696 14.2677 15.8366C14.077 15.7036 13.9816 15.5102 13.9816 15.2591V8.42275H13.9615L11.3505 13.7226C11.2722 13.893 11.1571 14.0438 11.0136 14.1645C10.8868 14.2625 10.7188 14.3115 10.5079 14.3115C10.2979 14.3115 10.129 14.2625 10.003 14.1645C9.85927 14.0441 9.74419 13.8931 9.66613 13.7226L7.05512 8.42362H7.035V15.2582C7.04006 15.372 7.01536 15.4851 6.96334 15.5864C6.91132 15.6876 6.83378 15.7736 6.73838 15.8357C6.55947 15.9635 6.34572 16.0335 6.12587 16.0361C5.88525 16.0361 5.68138 15.9696 5.51162 15.8366C5.34275 15.7036 5.25787 15.5102 5.25787 15.2591V6.08825C5.25787 5.82225 5.34187 5.57288 5.51162 5.34188C5.67963 5.11088 5.9815 4.99538 6.41813 4.99538C6.74188 4.99538 6.99125 5.06887 7.16712 5.21588C7.34212 5.36375 7.49962 5.58425 7.64137 5.87825L10.5087 11.788H10.5298L13.3761 5.87825C13.5161 5.58425 13.6754 5.36375 13.8512 5.21588C14.0262 5.06887 14.2756 4.99538 14.5994 4.99538C15.0351 4.99538 15.3379 5.11088 15.5059 5.34188C15.6748 5.57375 15.7596 5.82312 15.7596 6.08913V15.2574C15.7596 15.5094 15.6712 15.7028 15.4954 15.8349L15.4945 15.8366ZM10.479 19.4731C15.4297 19.4731 19.4731 15.4131 19.4731 10.437C19.4731 5.5195 15.4455 1.52688 10.479 1.52688C5.51425 1.52688 1.52775 5.49588 1.52775 10.437C1.52775 15.3283 5.65338 19.4731 10.479 19.4731ZM10.479 21C4.80813 21 0 16.17 0 10.437C0 4.65063 4.6725 0 10.479 0C16.2864 0 21 4.6725 21 10.437C21 16.2549 16.275 21 10.479 21Z" fill="#74C947"/>
<defs>
<linearGradient id="paint0_linear" x1="0" y1="10.5" x2="21" y2="10.5" gradientUnits="userSpaceOnUse">
<stop stop-color="#02AAB0"/>
<stop offset="1" stop-color="#00CDAC"/>
</linearGradient>
</defs>
</svg>